<mxfile host="65bd71144e">
    <diagram id="RmRykAjFj8UFP34hn3Dj" name="Page-1">
        <mxGraphModel dx="2045" dy="792" grid="1" gridSize="10" guides="1" tooltips="1" connect="1" arrows="1" fold="1" page="1" pageScale="1" pageWidth="850" pageHeight="1100" math="0" shadow="0">
            <root>
                <mxCell id="0"/>
                <mxCell id="1" parent="0"/>
                <mxCell id="2" value="leverancier" style="whiteSpace=wrap;html=1;" vertex="1" parent="1">
                    <mxGeometry x="140" y="190" width="150" height="40" as="geometry"/>
                </mxCell>
                <mxCell id="36" value="" style="edgeStyle=none;html=1;endArrow=ERmany;endFill=0;" edge="1" parent="1" source="3" target="33">
                    <mxGeometry relative="1" as="geometry"/>
                </mxCell>
                <mxCell id="37" value="" style="edgeStyle=none;html=1;endArrow=ERmany;endFill=0;entryX=1;entryY=0.5;entryDx=0;entryDy=0;" edge="1" parent="1" source="3" target="35">
                    <mxGeometry relative="1" as="geometry">
                        <mxPoint x="30" y="430" as="targetPoint"/>
                        <Array as="points"/>
                    </mxGeometry>
                </mxCell>
                <mxCell id="3" value="id (PK)&lt;br&gt;naam&lt;br&gt;adres&lt;br&gt;postbus&lt;br&gt;email&lt;br&gt;mobielnummer&lt;br&gt;vast nummer&lt;br&gt;contactpersoon&lt;br&gt;+&lt;br&gt;(optionele eigenschappen)" style="whiteSpace=wrap;html=1;" vertex="1" parent="1">
                    <mxGeometry x="140" y="230" width="150" height="200" as="geometry"/>
                </mxCell>
                <mxCell id="19" value="" style="edgeStyle=none;html=1;endArrow=ERmany;endFill=0;" edge="1" parent="1" source="5" target="3">
                    <mxGeometry relative="1" as="geometry"/>
                </mxCell>
                <mxCell id="5" value="adres" style="whiteSpace=wrap;html=1;" vertex="1" parent="1">
                    <mxGeometry x="350" y="20" width="150" height="40" as="geometry"/>
                </mxCell>
                <mxCell id="6" value="nummer (PK)&lt;br&gt;postcode (PK)" style="whiteSpace=wrap;html=1;" vertex="1" parent="1">
                    <mxGeometry x="350" y="60" width="150" height="150" as="geometry"/>
                </mxCell>
                <mxCell id="7" value="postbus" style="whiteSpace=wrap;html=1;" vertex="1" parent="1">
                    <mxGeometry x="590" y="390" width="150" height="40" as="geometry"/>
                </mxCell>
                <mxCell id="21" value="" style="edgeStyle=none;html=1;endArrow=ERmany;endFill=0;exitX=-0.027;exitY=0.7;exitDx=0;exitDy=0;exitPerimeter=0;" edge="1" parent="1" source="8" target="3">
                    <mxGeometry relative="1" as="geometry"/>
                </mxCell>
                <mxCell id="8" value="postbusnummer (PK)&lt;br&gt;postcode (FK)&lt;br&gt;plaats" style="whiteSpace=wrap;html=1;" vertex="1" parent="1">
                    <mxGeometry x="590" y="430" width="150" height="150" as="geometry"/>
                </mxCell>
                <mxCell id="23" value="" style="edgeStyle=none;html=1;endArrow=ERmany;endFill=0;" edge="1" parent="1" source="9" target="11">
                    <mxGeometry relative="1" as="geometry"/>
                </mxCell>
                <mxCell id="9" value="land" style="whiteSpace=wrap;html=1;" vertex="1" parent="1">
                    <mxGeometry x="745" y="270" width="85" height="30" as="geometry"/>
                </mxCell>
                <mxCell id="24" value="" style="edgeStyle=none;html=1;endArrow=ERmany;endFill=0;" edge="1" parent="1" source="10" target="14">
                    <mxGeometry relative="1" as="geometry"/>
                </mxCell>
                <mxCell id="10" value="provincie" style="whiteSpace=wrap;html=1;" vertex="1" parent="1">
                    <mxGeometry x="885" y="235" width="130" height="40" as="geometry"/>
                </mxCell>
                <mxCell id="11" value="naam (PK)&lt;br&gt;land (FK)(PK)" style="whiteSpace=wrap;html=1;" vertex="1" parent="1">
                    <mxGeometry x="885" y="275" width="130" height="60" as="geometry"/>
                </mxCell>
                <mxCell id="18" value="" style="edgeStyle=none;html=1;endArrow=ERmany;endFill=0;entryX=1;entryY=0.25;entryDx=0;entryDy=0;" edge="1" parent="1" source="13" target="17">
                    <mxGeometry relative="1" as="geometry"/>
                </mxCell>
                <mxCell id="13" value="gemeente" style="whiteSpace=wrap;html=1;" vertex="1" parent="1">
                    <mxGeometry x="745" y="135" width="135" height="40" as="geometry"/>
                </mxCell>
                <mxCell id="14" value="naam (PK)&lt;br&gt;provincie (FK)(PK)" style="whiteSpace=wrap;html=1;" vertex="1" parent="1">
                    <mxGeometry x="745" y="175" width="135" height="40" as="geometry"/>
                </mxCell>
                <mxCell id="16" value="woonplaats" style="whiteSpace=wrap;html=1;" vertex="1" parent="1">
                    <mxGeometry x="570" y="235" width="110" height="35" as="geometry"/>
                </mxCell>
                <mxCell id="30" style="edgeStyle=none;html=1;endArrow=ERmany;endFill=0;entryX=1;entryY=0.5;entryDx=0;entryDy=0;" edge="1" parent="1" source="17" target="27">
                    <mxGeometry relative="1" as="geometry">
                        <mxPoint x="570" y="390" as="targetPoint"/>
                    </mxGeometry>
                </mxCell>
                <mxCell id="17" value="naam (PK)&lt;br&gt;gemeente (FK) (PK)" style="whiteSpace=wrap;html=1;" vertex="1" parent="1">
                    <mxGeometry x="570" y="270" width="110" height="70" as="geometry"/>
                </mxCell>
                <mxCell id="31" value="" style="edgeStyle=none;html=1;endArrow=ERmany;endFill=0;" edge="1" parent="1" source="26" target="6">
                    <mxGeometry relative="1" as="geometry"/>
                </mxCell>
                <mxCell id="26" value="postcode" style="whiteSpace=wrap;html=1;" vertex="1" parent="1">
                    <mxGeometry x="400" y="240" width="120" height="60" as="geometry"/>
                </mxCell>
                <mxCell id="51" value="" style="edgeStyle=none;html=1;fontColor=#FFFFFF;endArrow=ERmany;endFill=0;entryX=0;entryY=0.25;entryDx=0;entryDy=0;" edge="1" parent="1" source="27" target="8">
                    <mxGeometry relative="1" as="geometry"/>
                </mxCell>
                <mxCell id="27" value="geo-locatie (PK)&lt;br&gt;straatnaam&lt;br&gt;woonplaats (FK)" style="whiteSpace=wrap;html=1;" vertex="1" parent="1">
                    <mxGeometry x="400" y="300" width="120" height="60" as="geometry"/>
                </mxCell>
                <mxCell id="32" value="hoofdrubriek" style="whiteSpace=wrap;html=1;" vertex="1" parent="1">
                    <mxGeometry x="-160" y="80" width="210" height="70" as="geometry"/>
                </mxCell>
                <mxCell id="33" value="id (PK)&lt;br&gt;leverancier (FK)&lt;br&gt;sub rubriek" style="whiteSpace=wrap;html=1;" vertex="1" parent="1">
                    <mxGeometry x="-160" y="150" width="210" height="140" as="geometry"/>
                </mxCell>
                <mxCell id="38" value="" style="edgeStyle=none;html=1;endArrow=ERmany;endFill=0;" edge="1" parent="1" source="34" target="33">
                    <mxGeometry relative="1" as="geometry"/>
                </mxCell>
                <mxCell id="34" value="sub rubriek" style="whiteSpace=wrap;html=1;" vertex="1" parent="1">
                    <mxGeometry x="-115" y="370" width="120" height="40" as="geometry"/>
                </mxCell>
                <mxCell id="35" value="id (PK)&lt;br&gt;leverancier (FK)" style="whiteSpace=wrap;html=1;" vertex="1" parent="1">
                    <mxGeometry x="-115" y="410" width="120" height="60" as="geometry"/>
                </mxCell>
                <mxCell id="40" value="" style="edgeStyle=none;html=1;endArrow=ERmany;endFill=0;" edge="1" parent="1" source="39" target="3">
                    <mxGeometry relative="1" as="geometry"/>
                </mxCell>
                <mxCell id="39" value="contactpersoon" style="whiteSpace=wrap;html=1;" vertex="1" parent="1">
                    <mxGeometry x="340" y="477.5" width="120" height="35" as="geometry"/>
                </mxCell>
                <mxCell id="41" value="id (PK)&lt;br&gt;naam&lt;br&gt;email&lt;br&gt;telefoonnummer&lt;br&gt;functie" style="whiteSpace=wrap;html=1;" vertex="1" parent="1">
                    <mxGeometry x="340" y="512.5" width="120" height="97.5" as="geometry"/>
                </mxCell>
                <mxCell id="45" value="" style="edgeStyle=none;html=1;endArrow=ERmany;endFill=0;" edge="1" parent="1" source="42" target="41">
                    <mxGeometry relative="1" as="geometry"/>
                </mxCell>
                <mxCell id="42" value="functie" style="whiteSpace=wrap;html=1;" vertex="1" parent="1">
                    <mxGeometry x="160" y="480" width="120" height="40" as="geometry"/>
                </mxCell>
                <mxCell id="43" value="afdeling (PK)&lt;br&gt;taak (PK)" style="whiteSpace=wrap;html=1;" vertex="1" parent="1">
                    <mxGeometry x="160" y="520" width="120" height="90" as="geometry"/>
                </mxCell>
                <mxCell id="47" value="" style="edgeStyle=none;html=1;endArrow=ERmany;endFill=0;" edge="1" parent="1" source="46" target="43">
                    <mxGeometry relative="1" as="geometry"/>
                </mxCell>
                <mxCell id="46" value="afdeling" style="whiteSpace=wrap;html=1;" vertex="1" parent="1">
                    <mxGeometry x="160" y="650" width="120" height="30" as="geometry"/>
                </mxCell>
                <mxCell id="48" value="naam (PK)" style="whiteSpace=wrap;html=1;fontColor=#FFFFFF;" vertex="1" parent="1">
                    <mxGeometry x="160" y="680" width="120" height="60" as="geometry"/>
                </mxCell>
                <mxCell id="50" value="naam (PK)" style="whiteSpace=wrap;html=1;fontColor=#FFFFFF;" vertex="1" parent="1">
                    <mxGeometry x="745" y="300" width="85" height="40" as="geometry"/>
                </mxCell>
            </root>
        </mxGraphModel>
    </diagram>
</mxfile>